<svg width="513" height="513" viewBox="0 0 513 513" fill="none" xmlns="http://www.w3.org/2000/svg">
<path d="M240.726 1.43666C250.562 0.345112 260.442 -0.813263 270.278 1.12479C333.966 3.97617 396.164 32.1559 440.247 78.2904C479.124 117.386 503.847 169.757 511.079 224.335C515.129 261.893 512.325 300.453 500.175 336.385C483.997 385.861 452.153 429.879 410.606 461.156C372.798 489.625 327.001 507.357 279.847 511.523C264.403 512.28 248.937 512.28 233.493 511.456C178.128 505.82 124.342 482.407 83.8409 443.936C44.9202 408.294 17.7491 360.132 7.17885 308.406C3.46258 291.409 2.43893 274.011 0.814453 256.747C2.81724 230.862 5.37635 204.709 13.6545 179.915C33.0148 117.163 78.0106 63.1647 135.513 31.7326C167.869 14.357 204.008 3.46381 240.726 1.43666ZM222.99 33.4256C186.383 39.017 151.179 53.7863 121.627 76.1518C108.52 85.8198 97.4376 97.8936 86.1553 109.566C50.528 150.488 31.3458 204.843 31.7241 258.975C32.5029 302.592 45.4765 346.12 69.9105 382.342C93.9216 417.538 127.568 446.297 166.645 463.406C231.357 492.12 309.51 488.043 370.55 451.978C419.151 424.043 456.47 377.196 472.893 323.532C486.89 278.043 486.245 228.166 470.756 183.146C451.04 124.826 406.222 75.684 350.078 50.6008C310.534 32.891 265.805 26.5199 222.99 33.4256Z" fill="white"/>
<path d="M198.689 176.596C199.802 161.27 221.009 153.473 231.802 164.3C256.97 188.915 281.538 214.132 306.595 238.837C312.648 244.406 318.033 252.203 316.297 260.868C313.827 267.774 308.175 272.741 303.168 277.82C279.224 301.3 255.925 325.492 231.847 348.838C220.965 359.597 199.958 352.135 198.734 336.742C196.998 326.762 204.431 318.876 210.906 312.438C229.933 293.904 248.247 274.635 267.496 256.324C248.447 238.814 230.956 219.701 212.242 201.858C205.521 195.063 197.043 187.155 198.689 176.596Z" fill="white"/>
</svg>
