<svg width="512" height="512" viewBox="0 0 512 512" fill="none" xmlns="http://www.w3.org/2000/svg">
<path d="M244.179 0H266.907C265.315 0.978823 263.476 1.40908 261.701 1.91462C264.519 1.7963 267.714 2.45244 270.102 0.484034C303.736 2.34487 337.016 10.8316 367.36 25.5032C371.619 27.2995 375.728 30.1822 377.31 34.7321C380.569 42.2938 376.546 51.7916 368.92 54.8141C364.359 56.5459 359.067 56.0726 354.818 53.717C298.81 25.9012 231.024 23.3304 173.026 46.6608C131.958 62.9351 95.9247 91.5899 70.8195 127.914C35.3882 178.565 22.5237 244.211 36.0874 304.5C45.0581 345.417 65.8071 383.677 95.204 413.515C132.561 451.991 184.169 476.364 237.671 480.355C284.192 484.485 331.81 473.18 371.781 449.108C407.255 427.8 436.749 396.617 455.788 359.863C484.066 306.038 489.078 240.511 469.018 183.083C467.727 179.609 466.856 175.736 468.114 172.122C469.997 164.421 478.537 159.183 486.249 161.119C491.434 162.227 495.844 166.217 497.544 171.219C504.557 191.301 509.107 212.276 510.892 233.476C511.279 237.284 511.419 241.124 512 244.91V268.101C511.15 266.089 510.731 263.938 510.29 261.808C510.096 264.11 509.494 267.014 511.602 268.682C509.537 310.631 497.049 352.054 475.321 388.012C455.454 420.926 428.101 449.28 395.929 470.309C360.013 493.747 318.118 508.257 275.275 511.043L277.061 512H237.23C235.068 510.892 232.659 510.688 230.282 510.548C172.101 505.03 116.19 478.483 75.0897 436.943C32.8175 395.079 6.02353 337.898 1.12941 278.599C1.73176 273.63 2.3126 268.628 1.60269 263.605C0.806723 267.853 2.59227 272.769 0 276.512V246.179C1.09714 234.305 1.91462 222.376 4.13042 210.641C13.1227 159.882 37.959 112.016 74.5089 75.6383C118.782 30.6232 180.34 3.21613 243.415 0.397983C244.867 2.18353 247.309 1.88235 249.331 2.28034C247.599 1.53815 245.868 0.817479 244.179 0Z" fill="#B3A38A"/>
<path d="M485.55 56.2339C491.745 54.8786 498.231 53.8245 504.502 55.3519C506.03 55.9113 508.235 55.8467 508.676 57.8259C490.637 75.0144 473.944 93.5691 457.519 112.274C408.696 167.874 364.369 227.42 323.85 289.248C323.528 289.699 322.904 290.614 322.592 291.076C315.923 302.542 308.286 313.535 301.725 325.109C300.079 327.336 298.863 329.939 296.551 331.595C296.712 331.692 297.035 331.886 297.196 331.983L297.551 332.198C286.117 350.742 275.813 369.963 265.422 389.109C260.668 397.101 257.075 405.728 252.654 413.902C249.911 419.808 246.728 425.498 244.157 431.478C240.898 428.671 240.446 423.863 237.918 420.442C234.229 412.87 230.539 405.287 226.646 397.822C225.548 394.616 223.526 391.884 221.794 389.023C218.288 382.86 214.179 376.987 210.984 370.673C210.662 370.221 210.006 369.307 209.672 368.855C202.627 358.626 195.517 348.3 187.966 338.372C184.922 333.424 180.791 329.283 177.328 324.647C172.853 319.559 168.712 314.17 163.85 309.437C142.026 286.322 118.867 264.078 92.0196 246.836C89.2338 244.803 86.1467 243.178 83.6297 240.791C87.502 237.983 92.1917 236.757 96.7309 235.466C109.864 233.078 123.428 231.809 136.626 234.498C157.902 238.704 177.037 250.009 194.043 263.088C211.113 275.91 226.248 291.109 241.059 306.35C241.586 306.404 242.629 306.522 243.146 306.587C264.486 272.489 286.967 239.091 311.179 206.973C348.837 157.483 390.41 109.779 442.213 74.5949L442.471 74.9714C442.589 75.1328 442.815 75.4662 442.933 75.6383C446.3 72.0134 450.882 69.9912 455.088 67.5281C464.683 62.4941 474.761 57.8581 485.55 56.2339Z" fill="#52CA89"/>
</svg>
