<svg width="512" height="512" viewBox="0 0 512 512" fill="none" xmlns="http://www.w3.org/2000/svg">
<path d="M512 256C512 397.385 397.385 512 256 512C114.615 512 0 397.385 0 256C0 114.615 114.615 0 256 0C397.385 0 512 114.615 512 256Z" fill="#b3a38a"/>
<path d="M142.255 135.639C149.747 130.541 161.118 133.109 165.682 140.937C173.803 154.83 181.789 168.794 189.852 182.719C193.205 188.196 193.057 195.53 189.474 200.853C187.68 203.704 184.866 205.67 182.007 207.336C173.854 212.268 165.72 217.232 157.58 222.19C160.349 235.142 165.252 247.524 170.72 259.547C179.565 278.475 190.269 296.551 202.813 313.263C209.126 321.5 215.843 329.507 223.605 336.444C231.611 332.114 239.578 327.714 247.571 323.364C249.968 322.057 252.327 320.565 255.025 319.956C260.679 318.515 266.998 320.322 271.094 324.472C272.62 325.99 273.729 327.861 274.793 329.725C282.503 343.138 290.304 356.506 297.989 369.938C302.553 377.811 299.143 389.001 290.945 392.966C277.369 399.532 263.717 405.943 250.103 412.432C247.468 413.572 244.988 415.11 242.257 416C230.585 413.066 219.958 406.968 210.229 400.025C193.141 387.675 178.604 372.174 165.451 355.795C149.555 335.74 135.839 313.993 124.301 291.164C112.886 268.271 103.387 244.237 98.227 219.122C94.9965 202.73 93.4454 185.602 97.163 169.159C97.554 167.801 97.5668 166.065 99.009 165.354C113.45 155.49 127.814 145.51 142.255 135.639Z" fill="#F8F8F8"/>
<path d="M205.242 179.132C265.967 179.158 326.691 179.107 387.416 179.158C351.336 203.851 315.288 228.583 279.215 253.276C254.686 236.461 230.15 219.66 205.614 202.858C208.408 195.242 208.299 186.652 205.242 179.132Z" fill="#F8F8F8"/>
<path d="M286.458 266.926C324.538 240.836 362.598 214.728 400.697 188.67C401.036 191.021 401.011 193.404 400.985 195.774C400.985 240.394 400.985 285.021 400.985 329.642C400.972 332.614 401.241 335.733 399.947 338.507C398.043 343.035 393.268 346.104 388.364 346.014C359.566 346.033 330.774 346.007 301.982 346.027C298.303 339.717 294.669 333.382 291.009 327.06C288.041 322.038 285.452 316.606 280.991 312.686C271.562 303.795 256.596 301.522 244.988 307.325C238.687 310.598 232.515 314.115 226.265 317.484C216.85 307.21 208.741 295.808 201.383 283.996C190.801 266.785 181.488 248.632 175.354 229.338C182.603 224.758 190.295 220.819 197.076 215.547C222.676 233.22 248.404 250.707 274.036 268.341C275.748 269.603 277.856 270.481 280.029 270.186C282.516 269.968 284.458 268.239 286.458 266.926Z" fill="#F8F8F8"/>
</svg>
