<svg width="683" height="657" viewBox="0 0 683 657" fill="none" xmlns="http://www.w3.org/2000/svg">
    <path d="M469.733 195.573C470.733 195.187 472.72 194.413 473.72 194.013C479.56 196.493 485.947 196.88 492.133 197.893C544.547 205.787 596.974 213.587 649.387 221.507C657.72 222.667 665.813 226.347 671.627 232.533C678.08 239.173 681.4 248.213 682.667 257.267V262.347C682.093 268.187 680.48 274 677.347 279.013C674.027 284.44 669.107 288.6 664.653 293.067C626.36 330.747 588.027 368.373 549.84 406.173C542.2 413.72 537.44 424.2 537.547 435C538.013 444.013 540.093 452.827 541.52 461.72C550.28 511.56 558.907 561.427 567.72 611.253C569.573 623.373 565.453 636.413 556.187 644.613C544.613 656.2 525.68 659.973 511.013 652.133C460.64 625.613 410.307 598.987 359.933 572.467C353.787 569.16 346.947 566.653 339.867 567.067C329.44 567.88 320.693 574.093 311.493 578.453C264.52 602.56 217.587 626.747 170.587 650.813C160.013 656.48 146.613 656.613 136.04 650.867C120.96 643.187 112.32 625.053 115.6 608.507C122.627 568.493 129.547 528.453 136.653 488.453C145.773 488.24 154.893 488.4 164.013 488.293C194.813 487.24 225.547 482.147 254.813 472.387C274.133 466.28 292.32 457.2 310.213 447.813C325.253 438.787 340.28 429.493 353.533 417.92C359.307 412.973 365.027 407.987 370.84 403.093C377.427 397.707 382.08 390.44 388.387 384.76C434.573 334.867 463 269.147 468.827 201.48C469.04 199.493 469.413 197.533 469.733 195.573Z" fill="#ffbe0d"/>
    <path d="M316.84 9.13342C326.84 0.466748 341.427 -0.999919 353.773 2.77341C363.52 6.08008 371.733 13.4001 376.307 22.6001C401.373 72.6667 426.4 122.76 451.427 172.84C456.453 181.947 464.173 189.733 473.72 194.013C472.72 194.413 470.733 195.187 469.733 195.573C469.413 197.533 469.04 199.493 468.827 201.48C463 269.147 434.573 334.867 388.387 384.76C382.08 390.44 377.427 397.707 370.84 403.093C365.027 407.987 359.307 412.973 353.533 417.92C340.28 429.493 325.253 438.787 310.213 447.813C292.32 457.2 274.133 466.28 254.813 472.387C225.547 482.147 194.813 487.24 164.013 488.293C154.893 488.4 145.773 488.24 136.653 488.453C139.627 473.76 141.853 458.92 144.587 444.187C146.253 435.347 146.44 425.893 142.747 417.52C139.947 410.28 134.4 404.627 128.813 399.427C89.72 361.653 50.5733 323.92 11.5067 286.12C4.88 279.76 1 270.96 0 261.88V257.293C0.973333 251.693 1.58667 245.84 4.57333 240.853C9.86667 230.52 20.48 223.507 31.8933 221.92C88.36 213.32 144.88 204.987 201.36 196.44C209.427 195.147 217.52 192.227 223.547 186.547C227.733 182.64 229.707 177.187 232.08 172.133C256.4 123.507 280.707 74.8801 305.013 26.2534C308.027 19.9867 311.293 13.5601 316.84 9.13342Z" fill="#ffce00"/>
</svg>
