<svg width="120" height="120" viewBox="0 0 120 120" fill="none" xmlns="http://www.w3.org/2000/svg">
<path fill-rule="evenodd" clip-rule="evenodd" d="M33.1565 0.357839C28.7914 1.20528 24.7459 3.12335 21.0074 6.11759C16.7339 9.54046 14.2683 12.3991 10.8829 17.8553C5.17941 27.0472 1.75082 37.8854 0.359823 51.1199C0.117291 53.4277 0.0908932 56.4347 0.0473964 86.8199L0 120H42.4147C88.1356 120 86.361 120.045 90.1927 118.775C95.5326 117.004 100.619 113.275 105.257 107.728C107.145 105.47 110.92 99.4309 112.33 96.4098C115.786 89.0111 118.057 81.1141 119.189 72.5668C119.996 66.4684 120 66.2725 120 31.8614V0L77.3657 0.02592C43.8348 0.0465599 34.3951 0.11736 33.1565 0.357839ZM60.1266 35.5293C64.266 37.1875 67.71 42.5855 68.8454 49.1951C69.0151 50.1825 69.1538 51.238 69.1538 51.5406V52.091L66.5119 52.0254L63.8702 51.9599L63.6039 50.5828C62.5734 45.2502 58.9919 41.8113 55.3439 42.651C51.7301 43.4831 49.3907 47.2535 48.351 53.9209C48.1588 55.1529 48.0942 56.6327 48.0904 59.8799C48.0862 63.5913 48.1335 64.5028 48.4251 66.3503C49.2742 71.728 51.1411 75.3529 53.7908 76.7694C55.117 77.4783 57.1343 77.6615 58.3935 77.1875C60.8471 76.2637 62.8199 73.4999 63.681 69.7799L63.945 68.6399H66.5494H69.1538V69.2653C69.1538 69.6092 69.0535 70.5102 68.9308 71.2674C67.9125 77.5559 64.7666 82.3436 60.3795 84.2826C58.7213 85.0153 54.1942 85.0755 52.5927 84.3863C46.0371 81.5646 42.4603 72.9863 42.4567 60.0772C42.4536 48.9366 45.001 41.0882 49.9092 37.1162C52.5307 34.9946 57.0425 34.2938 60.1266 35.5293ZM91.5026 35.4143C97.2811 37.1683 100.991 43.3156 102.322 53.3399C102.789 56.8559 102.789 63.1439 102.322 66.6599C101.159 75.4211 98.1418 81.3095 93.5552 83.7699C91.6698 84.7811 90.3433 85.0345 87.6542 84.8965C85.7072 84.7967 85.0336 84.663 83.9277 84.1568C78.7499 81.7875 75.4674 75.6949 74.3017 66.2903C73.9404 63.3753 73.9427 56.6077 74.3058 53.6749C75.5492 43.6341 79.4796 37.0715 85.2539 35.3949C86.7827 34.9511 90.0093 34.961 91.5026 35.4143ZM36.9062 39.8375V43.4351L29.8193 43.4975L22.7323 43.5599L22.6922 49.8599L22.6524 56.1599H29.4042H36.1563V59.6375V63.1149L29.4443 63.1775L22.7323 63.2399V69.8399V76.4399L29.8193 76.5023L36.9062 76.5647V80.1623V83.7599H27.082H17.2577V59.9999V36.2399H27.082H36.9062V39.8375ZM86.7536 42.7269C82.9585 43.8194 80.428 48.6402 79.7232 56.1215C79.4477 59.0469 79.4475 60.9599 79.7226 63.8399C80.1586 68.4035 80.9458 71.2002 82.4973 73.6988C85.6155 78.7206 91.0402 78.776 94.138 73.8179C96.1602 70.5812 97.1113 66.0978 97.0948 59.8799C97.075 52.4838 95.6165 47.3068 92.7259 44.3721C91.3006 42.9251 88.6257 42.1881 86.7536 42.7269Z" fill="#958D79"/>
</svg>
