<svg width="144" height="144" viewBox="0 0 144 144" fill="none" xmlns="http://www.w3.org/2000/svg">
<path fill-rule="evenodd" clip-rule="evenodd" d="M39.7878 0.429407C34.5497 1.44633 29.6951 3.74803 25.2089 7.34111C20.0807 11.4486 17.1219 14.8789 13.0595 21.4263C6.21529 32.4567 2.10098 45.4625 0.431788 61.3439C0.140749 64.1133 0.109072 67.7216 0.0568757 104.184L0 144H50.8977C105.763 144 103.633 144.054 108.231 142.53C114.639 140.405 120.742 135.929 126.309 129.273C128.574 126.564 133.103 119.317 134.797 115.692C138.943 106.813 141.669 97.3369 143.027 87.0801C143.995 79.762 144 79.527 144 38.2337V0L92.8388 0.0311039C52.6018 0.0558719 41.2741 0.140832 39.7878 0.429407ZM72.1519 42.6352C77.1192 44.6249 81.252 51.1026 82.6145 59.0341C82.8181 60.219 82.9846 61.4856 82.9846 61.8488V62.5091L79.8143 62.4305L76.6442 62.3519L76.3247 60.6994C75.088 54.3003 70.7903 50.1735 66.4127 51.1813C62.0761 52.1798 59.2688 56.7042 58.0212 64.7051C57.7906 66.1834 57.713 67.9592 57.7085 71.8559C57.7035 76.3095 57.7602 77.4033 58.1101 79.6203C59.129 86.0735 61.3693 90.4235 64.5489 92.1233C66.1404 92.974 68.5612 93.1938 70.0722 92.625C73.0166 91.5164 75.3839 88.1999 76.4172 83.7359L76.734 82.3679H79.8593H82.9846V83.1184C82.9846 83.5311 82.8642 84.6122 82.7169 85.5209C81.495 93.067 77.72 98.8123 72.4554 101.139C70.4656 102.018 65.0331 102.091 63.1112 101.264C55.2445 97.8775 50.9524 87.5835 50.9481 72.0926C50.9443 58.724 54.0012 49.3058 59.891 44.5394C63.0369 41.9935 68.451 41.1525 72.1519 42.6352ZM109.803 42.4972C116.737 44.6019 121.19 51.9787 122.787 64.0079C123.347 68.2271 123.347 75.7727 122.787 79.9919C121.391 90.5053 117.77 97.5714 112.266 100.524C110.004 101.737 108.412 102.041 105.185 101.876C102.849 101.756 102.04 101.596 100.713 100.988C94.4999 98.145 90.5609 90.8339 89.1621 79.5483C88.7285 76.0503 88.7312 67.9293 89.1669 64.4099C90.659 52.3609 95.3756 44.4858 102.305 42.4739C104.139 41.9414 108.011 41.9532 109.803 42.4972ZM44.2875 47.805V52.1222L35.7831 52.197L27.2788 52.2719L27.2307 59.8319L27.1828 67.3919H35.2851H43.3875V71.565V75.7378L35.3332 75.813L27.2788 75.8879V83.8079V91.7278L35.7831 91.8027L44.2875 91.8776V96.1947V100.512H32.4984H20.7092V71.9999V43.4879H32.4984H44.2875V47.805ZM104.104 51.2723C99.5502 52.5832 96.5136 58.3683 95.6679 67.3458C95.3372 70.8562 95.3371 73.1519 95.6671 76.6079C96.1904 82.0842 97.1349 85.4402 98.9967 88.4386C102.739 94.4647 109.248 94.5312 112.966 88.5815C115.392 84.6975 116.534 79.3174 116.514 71.8559C116.49 62.9806 114.74 56.7682 111.271 53.2465C109.561 51.5102 106.351 50.6257 104.104 51.2723Z" fill="#958D79"/>
</svg>
